<svg width="48" height="48" viewBox="0 0 48 48" fill="none" xmlns="http://www.w3.org/2000/svg">
<g clip-path="url(#clip0_12622_1024)">
<mask id="mask0_12622_1024" style="mask-type:luminance" maskUnits="userSpaceOnUse" x="0" y="0" width="48" height="48">
<path d="M48 0H0V48H48V0Z" fill="white"/>
</mask>
<g mask="url(#mask0_12622_1024)">
<path d="M24 42C31.1797 42 37 36.1797 37 29C37 21.8203 31.1797 16 24 16C16.8203 16 11 21.8203 11 29C11 36.1797 16.8203 42 24 42Z" stroke="#111827" stroke-width="4" stroke-linecap="round" stroke-linejoin="round"/>
<path d="M42 21L44 19" stroke="#111827" stroke-width="4" stroke-linecap="round" stroke-linejoin="round"/>
<path d="M42 37L44 39" stroke="#111827" stroke-width="4" stroke-linecap="round" stroke-linejoin="round"/>
<path d="M44 29H46" stroke="#111827" stroke-width="4" stroke-linecap="round" stroke-linejoin="round"/>
<path d="M6 37L4 39" stroke="#111827" stroke-width="4" stroke-linecap="round" stroke-linejoin="round"/>
<path d="M6 21L4 19" stroke="#111827" stroke-width="4" stroke-linecap="round" stroke-linejoin="round"/>
<path d="M4 29H2" stroke="#111827" stroke-width="4" stroke-linecap="round" stroke-linejoin="round"/>
<path d="M21.6855 16.2175L28.2407 6.85302C28.4251 6.58959 28.6703 6.37452 28.9556 6.22602C29.2408 6.07753 29.5576 6 29.8792 6H36.9965C37.3623 5.99998 37.7212 6.10032 38.034 6.2901C38.3468 6.47989 38.6016 6.75184 38.7705 7.07636C38.9395 7.40088 39.0162 7.76553 38.9923 8.13062C38.9684 8.49571 38.8448 8.84725 38.635 9.14698L31.9348 18.7188" stroke="#111827" stroke-width="4" stroke-linecap="round" stroke-linejoin="round"/>
<path d="M24 12.9111L19.7593 6.85302C19.5749 6.58959 19.3297 6.37452 19.0444 6.22602C18.7592 6.07753 18.4424 6 18.1208 6H11.0035C10.6377 5.99998 10.2788 6.10032 9.96599 6.2901C9.65319 6.47989 9.39844 6.75184 9.22947 7.07636C9.0605 7.40088 8.98379 7.76553 9.00769 8.13062C9.03158 8.49571 9.15517 8.84725 9.36499 9.14698L16.0652 18.7188" stroke="#111827" stroke-width="4" stroke-linecap="round" stroke-linejoin="round"/>
</g>
</g>
<defs>
<clipPath id="clip0_12622_1024">
<rect width="48" height="48" fill="white"/>
</clipPath>
</defs>
</svg>
