<svg width="48" height="48" viewBox="0 0 48 48" fill="none" xmlns="http://www.w3.org/2000/svg">
<path d="M19.2201 11.72C16.4901 12.81 15.1261 13.356 14.9601 14.486C14.7941 15.616 15.9401 16.584 18.2301 18.518L18.8221 19.018C19.4721 19.568 19.7961 19.844 19.9821 20.218C20.1701 20.592 20.1961 21.024 20.2501 21.888L20.2981 22.674C20.4841 25.714 20.5781 27.234 21.5661 27.758C22.5541 28.282 23.7821 27.464 26.2381 25.826L26.8741 25.402C27.5721 24.936 27.9201 24.702 28.3201 24.64C28.7201 24.578 29.1241 24.688 29.9321 24.912L30.6681 25.116C33.5121 25.904 34.9341 26.298 35.7081 25.492C36.4841 24.686 36.0981 23.212 35.3281 20.266M36.0001 15.67C37.5721 13.118 38.3561 11.842 37.8481 10.818C37.3401 9.79804 35.8721 9.70404 32.9401 9.52204L32.1801 9.47404C31.3481 9.42204 30.9321 9.39604 30.5701 9.20404C30.2081 9.01204 29.9421 8.67603 29.4101 8.00403L28.9241 7.39204C27.0521 5.02604 26.1141 3.84204 25.0241 4.01604C23.9361 4.19204 23.4141 5.60804 22.3721 8.44204" stroke="black" stroke-width="2.5" stroke-linecap="round"/>
<path d="M14.8921 14.4819C10.2221 17.8979 6.6481 24.4319 8.4961 36.0019C10.1341 31.1779 15.0681 27.3159 20.5821 25.4559" stroke="black" stroke-width="2.5" stroke-linecap="round" stroke-linejoin="round"/>
<path d="M20.56 32C20.56 32 21.828 34.78 23.388 35.74C24.948 36.694 28 36.56 28 36.56C28 36.56 25.22 37.826 24.26 39.386C23.304 40.946 23.44 44 23.44 44C23.44 44 22.172 41.22 20.612 40.26C19.054 39.308 16 39.44 16 39.44C16 39.44 18.78 38.174 19.74 36.614C20.696 35.054 20.56 32 20.56 32ZM36.96 30C36.96 30 36.116 31.854 35.076 32.492C34.036 33.13 32 33.04 32 33.04C32 33.04 33.854 33.884 34.492 34.924C35.13 35.964 35.04 38 35.04 38C35.04 38 35.884 36.146 36.924 35.508C37.964 34.87 40 34.96 40 34.96C40 34.96 38.146 34.116 37.508 33.076C36.87 32.036 36.96 30 36.96 30Z" stroke="black" stroke-width="1.5" stroke-linejoin="round"/>
</svg>
