<svg width="48" height="48" viewBox="0 0 48 48" fill="none" xmlns="http://www.w3.org/2000/svg">
<mask id="mask0_12622_1039" style="mask-type:luminance" maskUnits="userSpaceOnUse" x="0" y="0" width="48" height="48">
<path d="M48 0H0V48H48V0Z" fill="white"/>
</mask>
<g mask="url(#mask0_12622_1039)">
<path d="M24 42C33.9411 42 42 33.9411 42 24C42 14.0589 33.9411 6 24 6C14.0589 6 6 14.0589 6 24C6 33.9411 14.0589 42 24 42Z" stroke="#111827" stroke-width="4" stroke-linecap="round" stroke-linejoin="round"/>
<path d="M24 42C18.6667 32.0588 18.6667 15.941 24 6" stroke="#111827" stroke-width="4" stroke-linecap="round" stroke-linejoin="round"/>
<path d="M6.25 26C16.0531 20.6667 31.9469 20.6667 41.75 26" stroke="#111827" stroke-width="4" stroke-linecap="round" stroke-linejoin="round"/>
<path d="M35.7 10.3379C33.4042 11.8193 31.5034 13.8372 30.1619 16.2175C28.8204 18.5977 28.0784 21.2688 28 23.9999C28.0784 26.7311 28.8204 29.4021 30.1619 31.7824C31.5034 34.1627 33.4042 36.1806 35.7 37.662" stroke="#111827" stroke-width="4" stroke-linecap="round" stroke-linejoin="round"/>
<path d="M9.6001 13.2329C12.3745 16.1371 13.9465 19.984 14.0001 24.0001C13.9465 28.0162 12.3744 31.8631 9.6001 34.7673" stroke="#111827" stroke-width="4" stroke-linecap="round" stroke-linejoin="round"/>
</g>
</svg>
