<svg width="20" height="20" viewBox="0 0 20 20" fill="none" xmlns="http://www.w3.org/2000/svg">
<path d="M3.33341 16.6666C2.87508 16.6666 2.48286 16.5035 2.15675 16.1774C1.83064 15.8513 1.6673 15.4588 1.66675 14.9999V4.99992C1.66675 4.54159 1.83008 4.14936 2.15675 3.82325C2.48341 3.49714 2.87564 3.33381 3.33341 3.33325H16.6667C17.1251 3.33325 17.5176 3.49659 17.8442 3.82325C18.1709 4.14992 18.334 4.54214 18.3334 4.99992V14.9999C18.3334 15.4583 18.1704 15.8508 17.8442 16.1774C17.5181 16.5041 17.1256 16.6671 16.6667 16.6666H3.33341ZM10.0001 10.6874C10.0695 10.6874 10.1426 10.6769 10.2192 10.6558C10.2959 10.6346 10.3687 10.6035 10.4376 10.5624L16.3334 6.87492C16.4445 6.80547 16.5279 6.71881 16.5834 6.61492C16.639 6.51103 16.6667 6.39631 16.6667 6.27075C16.6667 5.99297 16.5487 5.78464 16.3126 5.64575C16.0765 5.50686 15.8334 5.51381 15.5834 5.66659L10.0001 9.16658L4.41675 5.66659C4.16675 5.51381 3.92369 5.51047 3.68758 5.65659C3.45147 5.8027 3.33341 6.00742 3.33341 6.27075C3.33341 6.40964 3.36119 6.53131 3.41675 6.63575C3.4723 6.7402 3.55564 6.81992 3.66675 6.87492L9.56258 10.5624C9.63202 10.6041 9.70508 10.6355 9.78175 10.6566C9.85841 10.6777 9.93119 10.688 10.0001 10.6874Z" fill="white"/>
</svg>
