<svg width="20" height="20" viewBox="0 0 20 20" fill="none" xmlns="http://www.w3.org/2000/svg">
<path d="M3.33366 16.6667C2.87533 16.6667 2.4831 16.5036 2.15699 16.1775C1.83088 15.8514 1.66755 15.4589 1.66699 15V4.99999C1.66699 4.54166 1.83033 4.14944 2.15699 3.82333C2.48366 3.49722 2.87588 3.33388 3.33366 3.33333H16.667C17.1253 3.33333 17.5178 3.49666 17.8445 3.82333C18.1712 4.14999 18.3342 4.54222 18.3337 4.99999V15C18.3337 15.4583 18.1706 15.8508 17.8445 16.1775C17.5184 16.5042 17.1259 16.6672 16.667 16.6667H3.33366ZM10.0003 10.6875C10.0698 10.6875 10.1428 10.6769 10.2195 10.6558C10.2962 10.6347 10.3689 10.6036 10.4378 10.5625L16.3337 6.87499C16.4448 6.80555 16.5281 6.71888 16.5837 6.61499C16.6392 6.51111 16.667 6.39638 16.667 6.27083C16.667 5.99305 16.5489 5.78472 16.3128 5.64583C16.0767 5.50694 15.8337 5.51388 15.5837 5.66666L10.0003 9.16666L4.41699 5.66666C4.16699 5.51388 3.92394 5.51055 3.68783 5.65666C3.45171 5.80277 3.33366 6.00749 3.33366 6.27083C3.33366 6.40972 3.36144 6.53138 3.41699 6.63583C3.47255 6.74027 3.55588 6.81999 3.66699 6.87499L9.56282 10.5625C9.63227 10.6042 9.70532 10.6356 9.78199 10.6567C9.85866 10.6778 9.93144 10.688 10.0003 10.6875Z" fill="black"/>
</svg>
