<svg width="24" height="24" viewBox="0 0 24 24" fill="none" xmlns="http://www.w3.org/2000/svg">
<path d="M7 22C6.71667 22 6.47933 21.904 6.288 21.712C6.09667 21.52 6.00067 21.2827 6 21V17.7C5.05 16.8333 4.31267 15.821 3.788 14.663C3.26333 13.505 3.00067 12.284 3 11C3 8.5 3.875 6.375 5.625 4.625C7.375 2.875 9.5 2 12 2C14.0833 2 15.9293 2.61267 17.538 3.838C19.1467 5.06333 20.1923 6.659 20.675 8.625L21.975 13.75C22.0583 14.0667 22 14.3543 21.8 14.613C21.6 14.8717 21.3333 15.0007 21 15H19V18C19 18.55 18.8043 19.021 18.413 19.413C18.0217 19.805 17.5507 20.0007 17 20H15V21C15 21.2833 14.904 21.521 14.712 21.713C14.52 21.905 14.2827 22.0007 14 22H11.1L11.725 16H14C14.2833 16 14.521 15.904 14.713 15.712C14.905 15.52 15.0007 15.2827 15 15C14.9993 14.7173 14.9033 14.48 14.712 14.288C14.5207 14.096 14.2833 14 14 14H11.925L12.05 12.9C12.0833 12.65 12.1917 12.4373 12.375 12.262C12.5583 12.0867 12.775 11.9993 13.025 12H16C16.2833 12 16.521 11.9043 16.713 11.713C16.905 11.5217 17.0007 11.284 17 11C16.9993 10.716 16.9033 10.4787 16.712 10.288C16.5207 10.0973 16.2833 10.0013 16 10H13.05C12.2667 10 11.5917 10.2583 11.025 10.775C10.4583 11.2917 10.1333 11.9333 10.05 12.7L9.1 22H7Z" fill="white"/>
</svg>
